<svg width="38" height="43" viewBox="0 0 38 43" fill="none" xmlns="http://www.w3.org/2000/svg">
<g id="Logo" clip-path="url(#clip0_5_459)">
<path id="Vector" fill-rule="evenodd" clip-rule="evenodd" d="M20.0364 7.39769C20.0364 6.46635 19.8185 5.5478 19.4 4.71478C19.0383 3.99472 18.826 3.20957 18.7755 2.40608L18.6545 0.479797L18.5336 2.40601C18.4831 3.20951 18.2707 3.99469 17.909 4.71475C17.4906 5.54779 17.2727 6.46637 17.2727 7.39773V34.8245C17.2727 35.7558 17.4906 36.6744 17.909 37.5075C18.2707 38.2275 18.4831 39.0127 18.5336 39.8162L18.6545 41.7424L18.7755 39.8162C18.826 39.0126 19.0383 38.2275 19.4 37.5074C19.8185 36.6744 20.0364 35.7559 20.0364 34.8245V7.39769ZM12.4909 7.46562C12.9095 8.29865 13.1273 9.21725 13.1273 10.1486V32.0737C13.1273 33.0051 12.9095 33.9236 12.4909 34.7567C12.1293 35.4767 11.9169 36.2619 11.8664 37.0653L11.7455 38.9916L11.6245 37.0653C11.574 36.2619 11.3617 35.4767 11 34.7567C10.5814 33.9236 10.3636 33.0051 10.3636 32.0737V10.1486C10.3636 9.21725 10.5814 8.29865 11 7.46562C11.3617 6.74555 11.574 5.9604 11.6245 5.1569L11.7455 3.23065L11.8664 5.1569C11.9169 5.9604 12.1293 6.74555 12.4909 7.46562ZM9.67272 12.8994C9.67272 11.968 9.45492 11.0495 9.0364 10.2165C8.67471 9.49637 8.46231 8.71122 8.41186 7.90773L8.29091 5.98147L8.16996 7.90773C8.1195 8.71122 7.9071 9.49637 7.54539 10.2165C7.12694 11.0495 6.90909 11.968 6.90909 12.8994V29.3228C6.90909 30.2541 7.12694 31.1728 7.54539 32.0057C7.9071 32.7259 8.1195 33.511 8.16996 34.3145L8.29091 36.2407L8.41186 34.3145C8.46231 33.511 8.67471 32.7259 9.0364 32.0057C9.45492 31.1728 9.67272 30.2541 9.67272 29.3228V12.8994ZM5.58188 15.7181C6.00033 16.5512 6.21818 17.4697 6.21818 18.4011V23.8211C6.21818 24.7525 6.00033 25.6711 5.58188 26.5041C5.22017 27.2242 5.00777 28.0093 4.95731 28.8128L4.83636 30.7391L4.71541 28.8128C4.66496 28.0093 4.45255 27.2242 4.09085 26.5041C3.6724 25.6711 3.45454 24.7525 3.45454 23.8211V18.4011C3.45454 17.4697 3.6724 16.5512 4.09085 15.7181C4.45255 14.9981 4.66496 14.2129 4.71541 13.4094L4.83636 11.4832L4.95731 13.4094C5.00777 14.2129 5.22017 14.9981 5.58188 15.7181ZM2.7635 21.1111L2.76364 21.1519V21.0703L2.7635 21.1111ZM0 21.1519L0.00013941 21.1111C0.00640753 22.0285 0.223964 22.9324 0.636302 23.7532C0.998009 24.4733 1.21041 25.2584 1.26087 26.0619L1.38182 27.9882L1.50277 26.0619C1.55322 25.2584 1.76563 24.4733 2.12733 23.7532C2.53967 22.9324 2.75723 22.0285 2.7635 21.1111C2.75723 20.1937 2.53967 19.2898 2.12733 18.469C1.76563 17.7489 1.55322 16.9638 1.50277 16.1603L1.38182 14.234L1.26087 16.1603C1.21041 16.9638 0.998009 17.7489 0.636302 18.469C0.223964 19.2898 0.00640755 20.1937 0.00013941 21.1111L0 21.0703V21.1519ZM15.9455 4.71477C16.364 5.54779 16.5818 6.46636 16.5818 7.39771V34.8245C16.5818 35.7559 16.364 36.6744 15.9455 37.5074C15.5838 38.2275 15.3714 39.0126 15.3209 39.8162L15.2 41.7424L15.0791 39.8162C15.0286 39.0126 14.8162 38.2275 14.4545 37.5074C14.036 36.6744 13.8182 35.7559 13.8182 34.8245V7.39771C13.8182 6.46636 14.036 5.54779 14.4545 4.71477C14.8162 3.9947 15.0286 3.20954 15.0791 2.40605L15.2 0.479797L15.3209 2.40605C15.3714 3.20954 15.5838 3.9947 15.9455 4.71477ZM22.8546 4.71477C23.2731 5.54779 23.4909 6.46636 23.4909 7.39771V34.8245C23.4909 35.7559 23.2731 36.6744 22.8546 37.5074C22.4929 38.2275 22.2805 39.0126 22.23 39.8162L22.1091 41.7424L21.9882 39.8162C21.9377 39.0126 21.7253 38.2275 21.3636 37.5074C20.9451 36.6744 20.7273 35.7559 20.7273 34.8245V7.39771C20.7273 6.46636 20.9451 5.54779 21.3636 4.71477C21.7253 3.9947 21.9377 3.20954 21.9882 2.40605L22.1091 0.479797L22.23 2.40605C22.2805 3.20954 22.4929 3.9947 22.8546 4.71477ZM26.9454 10.1486C26.9454 9.21725 26.7276 8.29865 26.3091 7.46562C25.9474 6.74555 25.7351 5.9604 25.6845 5.1569L25.5636 3.23065L25.4427 5.1569C25.3922 5.9604 25.1798 6.74555 24.8181 7.46562C24.3996 8.29865 24.1818 9.21725 24.1818 10.1486V32.0737C24.1818 33.0051 24.3996 33.9236 24.8181 34.7567C25.1798 35.4767 25.3922 36.2619 25.4427 37.0653L25.5636 38.9916L25.6845 37.0653C25.7351 36.2619 25.9474 35.4767 26.3091 34.7567C26.7276 33.9236 26.9454 33.0051 26.9454 32.0737V10.1486ZM29.7637 10.2165C30.1822 11.0495 30.4 11.968 30.4 12.8994V29.3228C30.4 30.2541 30.1822 31.1728 29.7637 32.0057C29.402 32.7259 29.1896 33.511 29.1391 34.3145L29.0182 36.2407L28.8973 34.3145C28.8467 33.511 28.6344 32.7259 28.2727 32.0057C27.8543 31.1728 27.6364 30.2541 27.6364 29.3228V12.8994C27.6364 11.968 27.8543 11.0495 28.2727 10.2165C28.6344 9.49637 28.8467 8.71122 28.8973 7.90773L29.0182 5.98147L29.1391 7.90773C29.1896 8.71122 29.402 9.49637 29.7637 10.2165ZM33.8545 18.4011C33.8545 17.4697 33.6367 16.5512 33.2182 15.7181C32.8565 14.9981 32.6442 14.2129 32.5936 13.4094L32.4727 11.4832L32.3518 13.4094C32.3013 14.2129 32.0889 14.9981 31.7272 15.7181C31.3088 16.5512 31.0909 17.4697 31.0909 18.4011V23.8211C31.0909 24.7525 31.3088 25.6711 31.7272 26.5041C32.0889 27.2242 32.3013 28.0093 32.3518 28.8128L32.4727 30.7391L32.5936 28.8128C32.6442 28.0093 32.8565 27.2242 33.2182 26.5041C33.6367 25.6711 33.8545 24.7525 33.8545 23.8211V18.4011ZM37.3089 21.1111C37.309 21.1247 37.3091 21.1383 37.3091 21.1519V21.0703C37.3091 21.084 37.309 21.0975 37.3089 21.1111ZM34.5456 21.1111C34.5518 22.0285 34.7694 22.9324 35.1818 23.7532C35.5435 24.4733 35.7558 25.2584 35.8064 26.0619L35.9273 27.9882L36.0482 26.0619C36.0987 25.2584 36.3111 24.4733 36.6728 23.7532C37.0851 22.9324 37.3027 22.0285 37.3089 21.1111C37.3027 20.1937 37.0851 19.2898 36.6728 18.469C36.3111 17.7489 36.0987 16.9638 36.0482 16.1603L35.9273 14.234L35.8064 16.1603C35.7558 16.9638 35.5435 17.7489 35.1818 18.469C34.7694 19.2898 34.5518 20.1937 34.5456 21.1111ZM34.5456 21.1111C34.5455 21.0975 34.5454 21.084 34.5454 21.0703V21.1519C34.5454 21.1383 34.5455 21.1247 34.5456 21.1111Z" fill="#0080FF"/>
</g>
<defs>
<clipPath id="clip0_5_459">
<rect width="38" height="42.2222" fill="white"/>
</clipPath>
</defs>
</svg>
